<svg width="12" height="12" viewBox="0 0 12 12" fill="none" xmlns="http://www.w3.org/2000/svg">
<path d="M3.5625 11.5909C3.0767 11.5909 2.65909 11.5284 2.30966 11.4034C1.96023 11.2812 1.66903 11.1193 1.43608 10.9176C1.20597 10.7188 1.02273 10.5057 0.886364 10.2784L1.6875 9.71591C1.77841 9.83523 1.89347 9.97159 2.03267 10.125C2.17188 10.2812 2.36222 10.4162 2.60369 10.5298C2.84801 10.6463 3.16761 10.7045 3.5625 10.7045C4.09091 10.7045 4.52699 10.5767 4.87074 10.321C5.21449 10.0653 5.38636 9.66477 5.38636 9.11932V7.78977H5.30114C5.22727 7.90909 5.12216 8.05682 4.9858 8.23295C4.85227 8.40625 4.65909 8.56108 4.40625 8.69744C4.15625 8.83097 3.81818 8.89773 3.39205 8.89773C2.86364 8.89773 2.3892 8.77273 1.96875 8.52273C1.55114 8.27273 1.22017 7.90909 0.975852 7.43182C0.734375 6.95455 0.613636 6.375 0.613636 5.69318C0.613636 5.02273 0.731534 4.43892 0.96733 3.94176C1.20313 3.44176 1.53125 3.0554 1.9517 2.78267C2.37216 2.5071 2.85795 2.36932 3.40909 2.36932C3.83523 2.36932 4.1733 2.44034 4.4233 2.58239C4.67614 2.72159 4.86932 2.88068 5.00284 3.05966C5.1392 3.2358 5.24432 3.38068 5.31818 3.49432H5.42045V2.45455H6.39205V9.1875C6.39205 9.75 6.2642 10.2074 6.00852 10.5597C5.75568 10.9148 5.41477 11.1747 4.9858 11.3395C4.55966 11.5071 4.08523 11.5909 3.5625 11.5909ZM3.52841 7.99432C3.93182 7.99432 4.27273 7.90199 4.55114 7.71733C4.82955 7.53267 5.04119 7.26705 5.18608 6.92045C5.33097 6.57386 5.40341 6.15909 5.40341 5.67614C5.40341 5.20455 5.33239 4.78835 5.19034 4.42756C5.0483 4.06676 4.83807 3.78409 4.55966 3.57955C4.28125 3.375 3.9375 3.27273 3.52841 3.27273C3.10227 3.27273 2.74716 3.38068 2.46307 3.59659C2.18182 3.8125 1.97017 4.10227 1.82812 4.46591C1.68892 4.82955 1.61932 5.23295 1.61932 5.67614C1.61932 6.13068 1.69034 6.53267 1.83239 6.8821C1.97727 7.22869 2.19034 7.50142 2.47159 7.70028C2.75568 7.89631 3.10795 7.99432 3.52841 7.99432ZM11.0795 2.45455V3.30682H7.6875V2.45455H11.0795ZM8.67614 0.886364H9.68182V7.125C9.68182 7.40909 9.72301 7.62216 9.8054 7.7642C9.89063 7.90341 9.99858 7.99716 10.1293 8.04545C10.2628 8.09091 10.4034 8.11364 10.5511 8.11364C10.6619 8.11364 10.7528 8.10795 10.8239 8.09659C10.8949 8.08239 10.9517 8.07102 10.9943 8.0625L11.1989 8.96591C11.1307 8.99148 11.0355 9.01705 10.9134 9.04261C10.7912 9.07102 10.6364 9.08523 10.4489 9.08523C10.1648 9.08523 9.88636 9.02415 9.61364 8.90199C9.34375 8.77983 9.11932 8.59375 8.94034 8.34375C8.7642 8.09375 8.67614 7.77841 8.67614 7.39773V0.886364Z" fill="#EB1D36"/>
</svg>
